<?xml version="1.0" encoding="utf-8" ?><svg xmlns="http://www.w3.org/2000/svg" xmlns:xlink="http://www.w3.org/1999/xlink" width="1024" height="1024" viewBox="0 0 1024 1024"><path d="M0 0L1024 0L1024 1024L0 1024L0 0Z" fill="none"/><path fill="#1A1A18" d="M256.924 542.147C265.756 522.135 274.855 502.243 284.219 482.475C291.194 467.507 298.688 450.198 307.405 436.41C319.478 465.693 330.199 495.516 339.533 525.783C345.619 519.669 350.718 512.233 357.383 505.683C358.997 508.197 360.568 510.818 362.045 513.419C373.691 533.928 384.637 554.694 396.757 574.942L363.523 575.103C359.431 565.316 355.779 554.902 352.276 544.884C348.95 548.167 344.65 553.631 341.511 557.308C336.261 563.439 330.911 569.484 325.462 575.439C321.852 567.81 319.105 556.713 316.3 548.603C312.837 538.595 308.449 528.027 305.804 517.833C298.345 533.872 289.015 558.321 282.629 574.985L170.272 574.88L170.537 567.633C174.192 563.362 183.506 555.097 188.046 550.7C207.513 531.884 227.208 513.306 247.128 494.969C254.47 488.27 267.911 475.02 276.321 470.697C274.605 477.268 271.368 481.677 268.74 487.619C261.791 503.334 252.551 517.4 244.455 532.416C248.556 539.605 246.526 536.417 251.72 542.162L256.924 542.147Z"/><path fill="#F2EDE5" d="M244.455 532.416C248.556 539.605 246.526 536.417 251.72 542.162C247.032 542.511 243.381 542.408 238.714 542.144C240.408 538.919 242.547 535.552 244.455 532.416Z"/><path d="M306.254 450.332C308.265 452.319 328.122 509.634 329.794 516.938C323.719 507.264 320.685 499.023 313.687 489.153C309.708 494.479 305.714 499.739 301.968 505.234L301.118 505.263C300.37 503.488 300.529 501.472 300.499 499.512C300.952 494.877 301.492 490.87 302.212 486.267C293.103 495.141 283.515 507.591 275.48 517.611C284.496 495.558 296.043 472.064 306.254 450.332Z"/><path fill="#F2EDE5" d="M305.843 474.204C311.115 477.707 308.858 484.785 308.311 489.625C301.129 482.811 309.847 482.328 305.176 475.84L305.843 474.204Z"/><path d="M262.954 484.938C262.861 492.694 248.287 513.313 243.314 520.635C243.71 516.573 244.022 514.353 244.886 510.375C240.139 513.405 235.753 516.533 231.163 519.784C228.153 522.135 226.712 523.173 223.422 525.08C236.153 511.99 251.574 499.081 262.954 484.938Z"/><defs><linearGradient id="gradient_0" gradientUnits="userSpaceOnUse" x1="348.58582" y1="522.8075" x2="368.72958" y2="545.05566"><stop offset="0" stop-color="black"/><stop offset="1" stop-color="#272524"/></linearGradient></defs><path fill="url(#gradient_0)" d="M355.351 515.339C360.049 519.545 370.076 540.076 373.558 546.883C369.684 542.814 366.256 538.883 362.587 534.644C359.816 531.402 357.955 529.136 354.774 526.336C351.944 529.819 349.07 533.052 346.099 536.406C346.092 534.561 346.197 533.036 345.746 531.244C344.295 531.26 344.141 531.583 343.345 530.287C346.532 525.306 351.41 519.839 355.351 515.339Z"/><path fill="#1A1A18" d="M558.308 514.466C562.912 514.391 567.739 514.492 572.361 514.518C575.052 525.433 577.283 542.165 579.094 553.574C582.192 540.94 584.955 527.276 587.772 514.499L600.694 514.601C603.132 528.133 605.959 541.593 609.171 554.962C610.382 542.44 613.985 527.368 615.838 514.529C620.344 514.379 625.325 514.502 629.868 514.52C629.053 519.352 627.676 525.228 626.656 530.093C623.813 544.979 620.682 559.809 617.265 574.573L602.266 574.556L597.138 550.901C596.282 546.975 594.951 540.014 593.593 536.439C590.994 549.166 588.312 561.876 585.548 574.568L570.753 574.562C567.961 556.748 562.188 532.516 558.308 514.466Z"/><path fill="#1A1A18" d="M527.905 514.16C548.802 511.807 557.651 517.656 555.654 539.58C554.411 553.224 561.242 570.52 542.116 574.448C514.664 577.729 511.306 568.305 512.293 543.08C512.869 528.36 509.356 517.058 527.905 514.16Z"/><path d="M529.201 526.088C532.835 525.772 537.677 525.302 540.671 527.374C543.139 531.86 542.706 553.568 541.649 559.214C541.195 561.643 540.777 561.755 539.027 562.891C537.794 563.027 536.559 563.137 535.322 563.22C532.396 563.395 529.838 563.338 527.62 561.372C525.051 556.354 525.735 536.973 526.493 530.662C526.813 527.999 527.202 527.572 529.201 526.088Z"/><path fill="#1A1A18" d="M510.754 437.516C535.493 437.386 560.47 431.53 552.48 468.331C551.52 472.754 547.436 475.231 543.757 477.155C547.645 484.05 551.475 490.978 555.245 497.938L542.914 497.957C534.248 496.771 535.462 475.898 525.368 478.296C523.904 480.056 524.48 494.481 524.497 497.614C519.89 497.866 515.369 497.855 510.761 497.876L510.754 437.516Z"/><path d="M524.619 449.508C537.69 449.123 543.251 450.407 538.753 465.137C533.896 466.47 529.468 466.328 524.476 466.288L524.619 449.508Z"/><path fill="#1A1A18" d="M464.506 514.463C474.482 514.391 487.998 513.479 497.542 515.593C508.675 518.06 508.414 536.255 505.798 544.76C504.272 549.722 501.83 551.538 497.363 553.737C501.163 560.561 505.147 567.49 508.442 574.554L496.875 574.568C489.553 574.154 486.49 552.27 479.867 553.788C477.274 556.614 478.152 570.206 478.25 574.48L464.508 574.551L464.506 514.463Z"/><path d="M478.648 526.233C491.699 525.522 497.023 527.462 491.999 541.824C487.413 543.038 482.951 542.783 478.256 542.539C478.219 536.701 478.218 532.065 478.648 526.233Z"/><path fill="#1A1A18" d="M762.74 514.048C768.71 514.062 774.653 514.018 780.617 514.325C786.045 533.811 793.266 555.152 799.535 574.546L785.399 574.555C784.292 570.674 783.111 566.814 781.857 562.977L761.489 563.001L758.223 574.567L744.086 574.458C750.09 554.238 757.574 534.43 762.74 514.048Z"/><path d="M771.532 527.3C773.342 530.042 777.402 547.098 778.508 551.479L772.25 551.505L765.066 551.5L771.532 527.3Z"/><path fill="#1A1A18" d="M709.744 514.519L723.493 514.451C723.492 534.627 723.805 554.267 723.457 574.488L709.914 574.479L709.893 550.299C703.807 550.238 698.232 550.213 692.149 550.453C692.031 558.468 691.977 566.483 691.987 574.498L678.316 574.478L678.348 514.51L692.091 514.514L692.283 538.006L709.693 538.129C709.969 530.772 709.742 521.987 709.744 514.519Z"/><path fill="#1A1A18" d="M433.39 514.178C441.636 513.236 449.357 514.764 457.246 516.918C456.712 520.48 456.307 524.217 455.866 527.806C449.024 526.44 439.748 525.09 432.745 526.623C427.658 527.737 428.627 536.074 428.411 540.238C428.038 547.456 428.128 554.543 430.388 561.561C435.689 564.198 439.616 563.595 445.446 563.394L445.421 550.505L436.977 550.484L436.817 539.686L449.25 539.906L458.43 540.045C458.666 549.923 458.467 560.447 458.448 570.372C454.573 572.371 450.415 573.763 446.118 574.5C433.706 576.73 415.678 575.259 415.27 558.724C415.023 548.738 414.538 537.611 415.636 527.746C416.695 518.221 425.162 515.231 433.39 514.178Z"/><path fill="#1A1A18" d="M676.512 437.513L716.495 437.52L716.492 449.479L690.768 449.646C690.677 453.496 690.732 457.54 690.723 461.408L713.252 461.521C713.275 465.305 713.189 469.207 713.154 473.002C709.431 472.939 692.614 471.806 690.698 474.615L690.702 485.757L716.712 485.793L716.696 497.856C703.335 497.998 689.973 498.031 676.611 497.954C676.313 478.097 676.557 457.452 676.512 437.513Z"/><path fill="#1A1A18" d="M464.511 437.511L504.459 437.521L504.45 449.557L478.638 449.711L478.487 461.409L501.25 461.52L501.249 472.981C496.59 472.946 482.139 472.345 478.811 474.01L478.424 475.375L478.5 485.58L504.893 485.764C505.017 489.673 504.928 493.823 504.905 497.755C493.131 497.311 476.552 497.878 464.508 497.999L464.511 437.511Z"/><path fill="#1A1A18" d="M433.019 437.213C442.131 436.637 449.071 437.994 457.656 440.66C457.414 443.937 456.641 448.557 456.176 451.912C451.074 450.806 428.052 444.822 428.46 454.372C433.457 463.446 458.448 460.82 459.681 475.853C460.918 490.936 456.129 496.474 441.041 497.945C430.313 498.104 425.529 497.252 415.391 494.109C415.431 490.777 414.945 486.318 417.07 483.913C421.57 482.071 434.647 487.365 440.577 486.431C443.255 486.921 447.382 483.307 446.177 480.598C440.904 468.747 417.674 475.569 415.688 459.57C413.854 444.802 418.714 438.607 433.019 437.213Z"/><path fill="#1A1A18" d="M592.704 437.502L606.288 437.513L602.358 451.1C598.602 466.239 593.286 483.043 588.731 497.986L573.468 497.981C568.192 478.422 561.519 457.182 555.857 437.518L569.907 437.509C573.206 452.212 578.408 466.976 581.028 481.763C583.562 468.592 589.043 450.632 592.704 437.502Z"/><path fill="#1A1A18" d="M646.332 437.164C654.488 436.17 663.202 437.726 671.053 439.827C670.472 443.613 669.928 447.404 669.422 451.2C664.187 449.735 656.869 448.259 651.386 448.645C649.869 448.752 646.176 449.513 645.369 450.892C641.608 458.179 643.858 470.209 643.604 478.073C643.182 491.1 661.296 485.535 669.388 483.732C670.438 487.135 671.12 491.559 671.775 495.142C657.424 498.672 632.357 503.807 629.983 482.745C628.731 474.971 629.562 467.13 629.591 459.351C629.644 445.436 630.741 439.258 646.332 437.164Z"/><path fill="#1A1A18" d="M631.446 514.513C645.593 514.436 659.741 514.437 673.889 514.514L673.884 526.498L659.522 526.499L659.495 559.75L659.488 574.489L645.92 574.48C645.759 558.487 645.691 542.494 645.717 526.501L631.509 526.477L631.446 514.513Z"/><path fill="#1A1A18" d="M803.005 514.464C807.569 514.372 812.397 514.453 816.985 514.452L816.987 574.559L803.315 574.547C803.479 554.78 803.078 534.306 803.005 514.464Z"/><path fill="#1A1A18" d="M610.009 437.507L623.743 437.519C623.039 457.147 623.758 477.807 623.426 497.607C619.147 497.937 614.351 497.866 610.021 497.896L610.009 437.507Z"/></svg>